<?xml version="1.0" encoding="UTF-8"?>
<!DOCTYPE svg PUBLIC "-//W3C//DTD SVG 1.1//EN" "http://www.w3.org/Graphics/SVG/1.1/DTD/svg11.dtd">
<!-- Creator: CorelDRAW -->
<svg xmlns="http://www.w3.org/2000/svg" xml:space="preserve" width="2048px" height="2048px" style="shape-rendering:geometricPrecision; text-rendering:geometricPrecision; image-rendering:optimizeQuality; fill-rule:evenodd; clip-rule:evenodd"
viewBox="0 0 2048 2048"
 xmlns:xlink="http://www.w3.org/1999/xlink">
 <defs>
  <style type="text/css">
   <![CDATA[
    .fil2 {fill:none}
    .fil0 {fill:#A5A5A6;fill-rule:nonzero}
    .fil1 {fill:#AEAEAF;fill-rule:nonzero}
   ]]>
  </style>
 </defs>
 <g id="Layer_x0020_1">
  <metadata id="CorelCorpID_0Corel-Layer"/>
  <path class="fil0" d="M956.675 1601.95c-9.5067,-38.0091 -33.4654,-72.3627 -69.6142,-94.0442l-29.876 -17.9221 17.876 -29.8028 463.579 -772.883 17.9197 -29.876 29.8051 17.876c36.1961,21.711 77.8111,26.6858 115.825,17.1756 38.0091,-9.5067 72.3627,-33.4654 94.0453,-69.6142 21.7099,-36.1973 26.6847,-77.8134 17.1756,-115.825 -9.5067,-38.0079 -33.4654,-72.3627 -69.6142,-94.0453 -17.4378,-10.4587 -36.2114,-17.028 -55.2863,-19.9595 -20.0516,-3.07914 -40.1433,-2.2004 -59.1367,2.35158l-33.117 7.9382 -8.60788 -33.0284c-4.9689,-19.0689 -13.5768,-37.1646 -25.5319,-53.1319 -11.5146,-15.378 -26.1827,-28.8449 -43.7457,-39.3803 -36.1973,-21.711 -77.8134,-26.6847 -115.826,-17.1768 -38.0079,9.50788 -72.3615,33.4666 -94.0442,69.6154 -21.711,36.1973 -26.6847,77.8134 -17.1768,115.826 9.5067,38.0079 33.4654,72.3603 69.6142,94.043l29.876 17.9209 -17.876 29.8028 -463.579 772.884 -17.9185 29.876 -29.8051 -17.876c-36.1985,-21.7122 -77.8134,-26.6847 -115.827,-17.1756 -38.0079,9.50788 -72.3615,33.4654 -94.0418,69.6142 -21.711,36.1973 -26.6847,77.8134 -17.1768,115.826 9.5067,38.0091 33.4654,72.3615 69.6142,94.0442 17.4366,10.4587 36.2114,17.0291 55.2851,19.9595 20.0516,3.07914 40.1445,2.2004 59.1378,-2.35158l33.1158 -7.93701 8.60788 33.0272c4.97008,19.0701 13.5791,37.1646 25.5331,53.1319 11.5146,15.378 26.1815,28.8461 43.7445,39.3803 36.1985,21.7122 77.8134,26.687 115.827,17.1768 38.0091,-9.5067 72.3627,-33.4666 94.0442,-69.6142 21.711,-36.1973 26.6858,-77.8123 17.1756,-115.826z"/>
  <path class="fil1" d="M1322.22 714.677l16.4197 -27.3756 17.9197 -29.876 29.8051 17.876c29.8831,17.9244 63.4583,24.4394 95.6528,20.8158 14.1024,-11.1354 26.4567,-24.9543 36.2339,-41.2548 21.7099,-36.1973 26.6847,-77.8134 17.1756,-115.825 -9.5067,-38.0079 -33.4654,-72.3627 -69.6142,-94.0453 -17.4378,-10.4587 -36.2114,-17.028 -55.2863,-19.9595 -20.0516,-3.07914 -40.1433,-2.2004 -59.1367,2.35158l-33.117 7.9382 -8.60788 -33.0284c-4.9689,-19.0689 -13.5768,-37.1646 -25.5319,-53.1319 -11.5146,-15.378 -26.1827,-28.8449 -43.7457,-39.3803 -29.8831,-17.9244 -63.4607,-24.4382 -95.654,-20.8158 -14.1024,11.1354 -26.4555,24.9555 -36.2327,41.2548 -21.711,36.1973 -26.6847,77.8134 -17.1768,115.826 9.5067,38.0079 33.4654,72.3603 69.6142,94.043l29.876 17.9209 -17.876 29.8028 -463.579 772.884 -17.9185 29.876 -29.8051 -17.876c-4.53426,-2.72008 -9.15355,-5.17678 -13.8402,-7.37599l-16.4197 27.3756 -17.9185 29.876 -29.8051 -17.876c-29.8843,-17.9244 -63.4595,-24.4394 -95.6528,-20.8169 -14.1024,11.1354 -26.4567,24.9555 -36.2327,41.2559 -21.711,36.1973 -26.6847,77.8134 -17.1768,115.826 9.5067,38.0091 33.4654,72.3615 69.6142,94.0442 17.4366,10.4587 36.2114,17.0291 55.2851,19.9595 20.0516,3.07914 40.1445,2.2004 59.1378,-2.35158l33.1158 -7.93701 8.60788 33.0272c4.97008,19.0701 13.5791,37.1646 25.5331,53.1319 11.5146,15.378 26.1815,28.8461 43.7445,39.3803 29.8843,17.9256 63.4607,24.4394 95.654,20.8169 14.1036,-11.1354 26.4579,-24.9555 36.2339,-41.2548 21.711,-36.1973 26.6858,-77.8123 17.1756,-115.826 -9.5067,-38.0091 -33.4654,-72.3627 -69.6142,-94.0442l-29.876 -17.9221 17.876 -29.8028 463.579 -772.883 17.9197 -29.876 29.8051 17.876c4.53426,2.72008 9.15355,5.17796 13.839,7.37599z"/>
 </g>
 <rect class="fil2" width="2048" height="2048"/>
</svg>
