<?xml version="1.0" encoding="iso-8859-1"?>
<!-- Generator: Adobe Illustrator 19.0.1, SVG Export Plug-In . SVG Version: 6.00 Build 0)  -->
<svg version="1.1" id="Dog_x5F_icon" xmlns="http://www.w3.org/2000/svg" xmlns:xlink="http://www.w3.org/1999/xlink" x="0px"
	 y="0px" viewBox="0 0 128 128" style="enable-background:new 0 0 128 128;" xml:space="preserve">
<g id="row3" style="display:none;">
	<path id="icon:5_2_" style="display:inline;fill:#434544;" d="M56.8,74.24c0,3.51-0.88,6.99-2.54,10.05
		C46.71,80.66,41.5,72.93,41.5,64c0-3.34,0.73-6.52,2.05-9.37C51.5,57.83,56.8,65.61,56.8,74.24z M73.74,51.9
		c0-2.58,0.4-5.12,1.21-7.55C71.71,42.53,67.97,41.5,64,41.5c-8.01,0-15.04,4.18-19.02,10.48C53.9,55.71,59.8,64.51,59.8,74.24
		c0,3.88-0.95,7.74-2.73,11.17c2.18,0.71,4.51,1.09,6.93,1.09c9.5,0,17.64-5.9,20.92-14.24C77.92,67.8,73.74,60.22,73.74,51.9z
		 M77.56,46.05c-0.54,1.89-0.82,3.85-0.82,5.85c0,7.01,3.39,13.44,9.13,17.38c0.41-1.69,0.63-3.46,0.63-5.28
		C86.5,56.67,82.99,50.15,77.56,46.05z"/>
	<path id="icon:4_2_" style="display:inline;fill:#434544;" d="M66.845,31.943l-0.27,1.34c0,0,1.29,0.62,1.29,3.45
		c0,1.3-1.07,2.79-1.97,3.41l4.67,8.18l0.83-14.86L66.845,31.943z M73.395,59.113c-2.83-3.5-1.25-6.75-1.25-6.75
		s-0.38-0.03-1.02-0.03l-6.96-11.83c0,0-3.08-0.44-3.25-3.56c-0.18-3.13,1.05-3.48,1.05-3.48l-0.26-1.34l-4.47,1.52l0.45,18.68
		c-1.12-0.01-1.82,0.04-1.82,0.04s1.58,3.25-1.25,6.75c-2.84,3.5-11.17,16.75-11.09,29c0.09,12.25,9.42,8.41,10,1.33
		c0.59-7.08-1.91-20.25,7.34-26.75c2.91-3.33,1-8.67,1-8.67s-0.23-0.34-0.66-0.71l0.58-1.56h4.97l0.37,1.31
		c-0.63,0.46-0.98,0.96-0.98,0.96s-1.92,5.34,1,8.67c9.25,6.5,6.75,19.67,7.33,26.75c0.59,7.08,9.92,10.92,10-1.33
		C84.565,75.863,76.225,62.613,73.395,59.113z M63.675,48.793c-1.11,0-2-0.9-2-2.02c0-1.11,0.89-2.02,2-2.02
		c1.11,0,2.01,0.91,2.01,2.02C65.685,47.893,64.785,48.793,63.675,48.793z"/>
	<path id="icon:3" style="display:inline;fill:#434544;" d="M87.835,33.06c-3.03,0-5.5,2.47-5.5,5.5c0,1.46,0.57,2.79,1.5,3.77v5.36
		h2v23.64c0,10.81-8.8,19.61-19.61,19.61c-5.48,0-10.45-2.26-14.01-5.9c0.46,0.04,0.92,0.06,1.39,0.06
		c10.13,0,18.4-8.52,18.92-19.24c0.01-0.36,0.02-0.71,0.02-1.07V47.92c0-1.14-0.75-2.14-1.84-2.47l-22.46-11.56
		c-1.72-0.89-3.78-0.8-5.42,0.23L36.635,38c-1.23,0.76-1.97,2.11-1.97,3.55v23.24c0,0.36,0.01,0.71,0.03,1.07
		c0.26,5.36,2.46,10.17,5.85,13.64c1.55,1.59,3.36,2.89,5.35,3.84c4.12,6.94,11.69,11.6,20.33,11.6c13.02,0,23.61-10.59,23.61-23.61
		V47.69h2v-5.36c0.93-0.98,1.5-2.31,1.5-3.77C93.335,35.53,90.865,33.06,87.835,33.06z M44.425,57.86V40.97c0.8,1.37,2.29,2.3,4,2.3
		c0.8,0,1.56-0.21,2.22-0.57c0.39,2.16,2.27,3.79,4.55,3.79c0.68,0,1.34-0.15,1.93-0.42c0.44,2.08,2.3,3.64,4.51,3.64
		c1.23,0,2.35-0.47,3.17-1.26v9.41H44.425z M87.835,41.06c-1.38,0-2.5-1.12-2.5-2.5c0-1.37,1.12-2.5,2.5-2.5s2.5,1.13,2.5,2.5
		C90.335,39.94,89.215,41.06,87.835,41.06z"/>
	<path id="icon:2_2_" style="display:inline;fill:#434544;" d="M87.795,77.7c0,2.57-1.05,4.91-2.75,6.6
		c-1.69,1.7-4.03,2.75-6.6,2.75h-28.89c-5.14,0-9.35-4.21-9.35-9.35c0-2.57,1.05-4.91,2.75-6.6c0.93-0.93,2.06-1.67,3.31-2.14
		c-0.39-0.74-0.6-1.57-0.6-2.45c0-1.5,0.62-2.87,1.61-3.86c1-1,2.36-1.61,3.87-1.61h4.14c-1.82-2.99-4.12-8.27-0.28-11.42
		c5.58-4.58,13.75-1.5,13.58-8.67c0,0,5.25,6.34,2,10.17c-0.46,0.93,8.13,2.41,7.01,9.92h0.36c3.01,0,5.48,2.46,5.48,5.47
		c0,1.04-0.3,2.01-0.81,2.84C85.685,70.89,87.795,74.06,87.795,77.7z"/>
	<path id="icon:1_2_" style="display:inline;fill:#434544;" d="M95.929,73.029c1.37-1.24,2.09-7.02,0.63-8.15
		c-4.34-3.37-14.8-4.67-14.87-6.26c-0.07-1.51-0.15-3.35-1.37-4.24c-3.12-2.26-6.63-3.47-7.66-3.37c-0.02-1.12-1.61-8.32-2.57-12.57
		c-0.22-0.96-1.54-1.06-1.91-0.14l-2.49,6.22l-3-12.25c-0.24-0.98-1.6-1.04-1.92-0.08c-1.86,5.7-5.73,16.76-7.98,18.13
		c-3.06,1.86-20.66,15.18-22.1,18.18c-1.44,3,27.13,28,27.13,28s6.16-12.88,11.52-15.75c5.35-2.87,12.72,1.75,20.19-0.49
		c3.58-1.07,3.25-2.89,1.41-4.88C89.929,74.279,94.249,74.569,95.929,73.029z M59.109,48.749c0,0,1.21-12.71,2.49-13.95
		c1.08-0.38,2.84,12.7,2.84,12.7L59.109,48.749z M67.979,47.309c0,0,0.62-6.45,1.27-7.08c0.55-0.19,1.44,6.45,1.44,6.45
		L67.979,47.309z"/>
</g>
<g id="row2" style="display:none;">
	<path id="icon:5_4_" style="display:inline;fill:#434544;" d="M81.045,56.735c-8.93-15.49-18.87-20.89-23.7-18.11
		c-0.43,0.25-0.82,0.55-1.17,0.91c-0.83,0.85-1.43,1.99-1.79,3.39l-14.56,27.55l8.08,12.05l21.4-7.63
		c-1.89-2.33-3.79-5.07-5.58-8.18c-3.38-5.87-5.68-11.86-6.47-16.89c-0.69-4.41-0.1-7.63,1.59-8.6c0.41-0.24,0.91-0.36,1.47-0.36
		c4.12,0,11.78,6.35,18.13,17.37c7.22,12.53,8.37,23.49,4.89,25.5c-2.41,1.38-7.4-1.29-12.65-7.21l-21.63,7.71l3.92,5.84l28.77-3.06
		c0.09,0.01,0.18,0.01,0.27,0.01c1.06,0,2.01-0.23,2.82-0.69c2.1-1.21,3.34-4.05,3.34-8.13
		C88.175,72.905,86.085,65.485,81.045,56.735z M49.075,79.605l-0.67-1.89l3.16-1.13l0.67,1.89L49.075,79.605z M62.205,72.705
		l0.67,1.89l-2.88,1.03l-0.68-1.89L62.205,72.705z M57.385,76.555l-2.89,1.03l-0.67-1.89l2.88-1.03L57.385,76.555z"/>
	<path id="icon:4_4_" style="display:inline;fill:#434544;" d="M50.466,80.186l-5.65,5.65l3.974,3.974l-2.121,2.121L36.6,81.862
		l2.121-2.121l3.974,3.974l5.65-5.65l-5.169-5.169l1.916-1.916l1.916,1.916l6.102-6.102l4.087,4.087l1.061-1.061l-4.087-4.087
		l3.889-3.889l4.087,4.087l1.061-1.061l-4.087-4.087l3.889-3.889l4.087,4.087l1.061-1.061l-4.087-4.087l2.581-2.581
		c1.061-1.061,2.772-1.061,3.832,0l0.898,0.898l4.738-4.738c0.622-0.622,1.556-0.75,2.319-0.382L91.4,36.069l-1.768,3.889
		L79.457,50.134c0.085,0.226,0.127,0.481,0.127,0.721c0,0.523-0.198,1.047-0.587,1.435l-4.738,4.738l1.018,1.018
		c1.061,1.061,1.061,2.772,0,3.832L55.635,81.522l1.916,1.916l-1.916,1.916L50.466,80.186z"/>
	<path id="icon:3_4_" style="display:inline;fill:#434544;" d="M64,58.111c-9.938,0-20.5-2.736-20.5-7.806S54.062,42.5,64,42.5
		s20.5,2.736,20.5,7.806S73.938,58.111,64,58.111z M64,44.5c-10.588,0-18.5,3.065-18.5,5.806s7.912,5.806,18.5,5.806
		s18.5-3.065,18.5-5.806S74.588,44.5,64,44.5z M64,60.19c-11.59,0-21-3.04-21-6.8v25.3c0,3.76,9.41,6.81,21,6.81s21-3.05,21-6.81
		v-25.3C85,57.15,75.59,60.19,64,60.19z M73.12,72.5c0,1.38-1.11,2.5-2.5,2.5c-1.38,0-2.5-1.12-2.5-2.5h-9c0,1.38-1.11,2.5-2.5,2.5
		c-1.38,0-2.5-1.12-2.5-2.5c0-0.82,0.41-1.55,1.02-2c-0.61-0.45-1.02-1.18-1.02-2c0-1.38,1.12-2.5,2.5-2.5c1.39,0,2.5,1.12,2.5,2.5
		h9c0-1.38,1.12-2.5,2.5-2.5c1.39,0,2.5,1.12,2.5,2.5c0,0.82-0.39,1.54-1,2C72.73,70.96,73.12,71.68,73.12,72.5z"/>
	<path id="icon:2_4_" style="display:inline;fill:#434544;" d="M88.4,62.5h-6.42l4.06-7.44l-1.76-0.96l-4.58,8.4h-9.33l5.66-9.55
		l-1.72-1.02L68.05,62.5h-9.29l6.56-10.83l-1.71-1.03L56.42,62.5h-5.59v-12C38.43,51.61,29,57.23,29,64c0,0.48,0.04,0.95,0.14,1.41
		c0.61-0.26,1.41-0.41,2.29-0.41c1.93,0,3.49,0.75,3.49,1.68c0,0.92-1.56,1.67-3.49,1.67c-0.4,0-0.78-0.03-1.13-0.09
		c2.99,4.77,10.86,8.38,20.53,9.24v-12h5.59l7.19,11.86l1.71-1.03L58.76,65.5h9.29l6.26,10.57l1.72-1.02l-5.66-9.55h9.33l4.58,8.4
		l1.76-0.96l-4.06-7.44h6.42L99,74.28L95,64l4-10.28L88.4,62.5z M44.55,60c-1.34,0-2.42-1.08-2.42-2.42c0-1.34,1.08-2.43,2.42-2.43
		c1.34,0,2.43,1.09,2.43,2.43C46.98,58.92,45.89,60,44.55,60z"/>
	<path id="icon:1_4_" style="display:inline;fill:#434544;" d="M67.79,84.858c-1.43-2.02-3.15-1.82-3.72-1.68
		c-0.04,0.01-0.08,0.02-0.1,0.03c-0.01,0-0.01,0-0.01,0c-0.02-0.01-0.06-0.02-0.09-0.03c-0.58-0.14-2.3-0.34-3.74,1.68
		c-0.81,1.14-1.75,2.84-2.98,4.11c-0.07,0.08-0.15,0.16-0.22,0.23c1.55,1.98,4.35,3.3,7.56,3.3c2.91,0,5.5-1.09,7.11-2.78
		C69.95,88.448,68.79,86.248,67.79,84.858z M86.15,36.028c-1.69-2.74-12.85,5.68-14.64,14.52H56.49
		c-1.79-8.84-12.95-17.26-14.64-14.52c-1.68,2.73-2.63,16.63-1.68,22s5.26,6,5.26,6s-1.26,12.74,2.11,18.21l0.01-0.02
		c-0.62,2.6,1.12,4.81,3.97,6.13c2.04,0.93,3.62,0.47,4.9-0.55c0.18-0.14,0.34-0.29,0.51-0.44c0.07-0.08,0.15-0.15,0.22-0.23
		c1.23-1.27,2.17-2.97,2.98-4.12c1.44-2.01,3.16-1.81,3.74-1.67c0.03,0.01,0.07,0.02,0.09,0.03c0,0,0,0,0.01,0
		c0.02-0.01,0.06-0.02,0.1-0.03c0.57-0.14,2.29-0.34,3.72,1.67c1,1.4,2.16,3.6,3.81,4.86c1.27,0.97,2.82,1.39,4.81,0.48
		c2.8-1.29,4.53-3.44,4.01-5.98l0.04-0.13c3.37-5.47,2.11-18.21,2.11-18.21s4.31-0.63,5.26-6
		C88.78,52.658,87.83,38.758,86.15,36.028z M63.87,70.728c0,0,0.03,0.01,0.1,0.03c0.06-0.02,0.1-0.03,0.1-0.03v0.06
		c-0.04-0.01-0.08-0.02-0.1-0.03c-0.03,0.01-0.06,0.02-0.1,0.03V70.728z M45.12,58.148c-5.77,1.8-2.75-20.37-1.11-20.02
		c1.64,0.34,9.51,7.62,9.51,11.83C53.52,52.398,50.89,56.348,45.12,58.148z M54.03,68.398c-1.8,0-5.16-2.35-5.16-2.35
		s3.36-2.34,5.16-2.34c1.8,0,3.26,1.05,3.26,2.34C57.29,67.348,55.83,68.398,54.03,68.398z M65.56,74.058
		c-0.26,0.3-0.53,0.57-0.81,0.79c-0.5,0.41-1.02,0.69-1.48,0.79c-0.46-0.1-0.98-0.37-1.49-0.79c-0.28-0.22-0.55-0.49-0.81-0.79
		c-1.19-1.39-1.58-3.01-0.86-3.62c0.65-0.56,2.02-0.07,3.16,1.09c1.13-1.16,2.49-1.65,3.15-1.09
		C67.13,71.048,66.75,72.668,65.56,74.058z M74.24,68.398c-1.8,0-3.26-1.05-3.26-2.35c0-1.29,1.46-2.34,3.26-2.34
		s5.16,2.34,5.16,2.34S76.04,68.398,74.24,68.398z M83.14,58.148c-5.78-1.8-8.4-5.75-8.4-8.19c0-2.43,5.89-10.84,9.51-11.83
		C85.87,37.678,88.91,59.948,83.14,58.148z"/>
</g>
<g id="row1">
	<path id="icon:5" style="display:none;fill:#434544;" d="M66,66.25v-4h-4v4h-4v4h4v4h4v-4h4v-4H66z M66,66.25v-4h-4v4h-4v4h4v4h4
		v-4h4v-4H66z M66,66.25v-4h-4v4h-4v4h4v4h4v-4h4v-4H66z M84,52.25h-8.51c0.01-0.06,0.01-0.12,0.01-0.18v-3.64
		c0-2.58-2.1-4.68-4.68-4.68H57.18c-2.58,0-4.68,2.1-4.68,4.68v3.64c0,0.06,0,0.12,0.01,0.18H44c-2.2,0-4,1.8-4,4v24
		c0,2.2,1.8,4,4,4h40c2.2,0,4-1.8,4-4v-24C88,54.05,86.2,52.25,84,52.25z M55.5,52.07v-3.64c0-0.93,0.75-1.68,1.68-1.68h13.64
		c0.93,0,1.68,0.75,1.68,1.68v3.64c0,0.06,0,0.12-0.02,0.18H55.52C55.5,52.19,55.5,52.13,55.5,52.07z M64,78.25
		c-5.52,0-10-4.48-10-10c0-5.52,4.48-10,10-10s10,4.48,10,10C74,73.77,69.52,78.25,64,78.25z"/>
	<path id="icon:4" style="display:none;fill:#434544;" d="M94.018,52.26c-3.82-6.37-16.15-10.8-30.15-10.8
		c-13.56,0-25.52,4.09-29.76,10.18l-0.13,0.18l-0.05,0.07v11.77c5.33,5.15,16.32,8.74,29.11,8.95c-0.11,0.57-0.17,1.23-0.17,1.93
		v0.14c-2.7,0.58-4.72,2.99-4.72,5.86c0,3.31,2.69,6,6,6s6-2.69,6-6c0-2.87-2.02-5.28-4.72-5.86v-0.14c0-0.7-0.06-1.36-0.17-1.93
		c12.7-0.17,23.36-3.64,28.79-8.73C94.048,63.88,94.118,52.19,94.018,52.26z M38.458,62.9c-0.83,0-1.5-0.67-1.5-1.5
		s0.67-1.5,1.5-1.5s1.5,0.67,1.5,1.5S39.288,62.9,38.458,62.9z M46.208,65.9c-0.83,0-1.5-0.67-1.5-1.5s0.67-1.5,1.5-1.5
		s1.5,0.67,1.5,1.5S47.038,65.9,46.208,65.9z M54.458,67.9c-0.83,0-1.5-0.67-1.5-1.5s0.67-1.5,1.5-1.5s1.5,0.67,1.5,1.5
		S55.288,67.9,54.458,67.9z M61.648,67.4c0-0.83,0.67-1.5,1.5-1.5s1.5,0.67,1.5,1.5s-0.67,1.5-1.5,1.5S61.648,68.23,61.648,67.4z
		 M72.148,68.4c-0.83,0-1.5-0.67-1.5-1.5s0.67-1.5,1.5-1.5s1.5,0.67,1.5,1.5S72.978,68.4,72.148,68.4z M80.398,66.4
		c-0.83,0-1.5-0.67-1.5-1.5s0.67-1.5,1.5-1.5s1.5,0.67,1.5,1.5S81.228,66.4,80.398,66.4z M64.238,60.75c-8.52,0-16.3-1.5-22.23-3.98
		c5.62-2.82,13.48-4.41,21.86-4.41c8.59,0,16.57,1.66,22.2,4.59C80.188,59.32,72.568,60.75,64.238,60.75z M88.148,63.4
		c-0.83,0-1.5-0.67-1.5-1.5s0.67-1.5,1.5-1.5s1.5,0.67,1.5,1.5S88.978,63.4,88.148,63.4z M92.368,53.58
		c-1.1,0.79-2.34,1.53-3.71,2.21c-0.1,0.05-0.2,0.1-0.3,0.14c-5.95-3.54-14.88-5.57-24.49-5.57c-9.37,0-18.16,1.95-24.12,5.34
		c-0.01,0-0.01,0.01-0.02,0.01c-0.1-0.04-0.2-0.09-0.3-0.14c-1.29-0.66-2.46-1.37-3.5-2.13v-0.91c3.99-5.35,15.4-9.07,27.94-9.07
		c13.42,0,25.1,4.07,28.5,9.92V53.58z"/>
	<path id="icon:3_2_" style="display:none;fill:#434544;" d="M38.934,70.797l-2.868-2.788L64.2,39.065l27.734,28.533l-2.869,2.788
		L64.2,44.804L38.934,70.797z M83.1,69.205v19.73H44.7v-19.73L64,49.445L83.1,69.205z M73.1,85.935v-9.33
		c0-2.71-1.08-5.18-2.82-6.97c-1.74-1.79-4.14-2.9-6.78-2.9c-5.28,0-9.6,4.44-9.6,9.87v9.33H73.1z"/>
	<path id="icon:2" style="display:none;fill:#434544;" d="M55.161,86.492c-2.049,0-4.097-0.78-5.657-2.339
		c-1.003-1.003-1.707-2.228-2.068-3.588c-1.36-0.362-2.585-1.065-3.588-2.068c-3.119-3.119-3.119-8.194,0-11.313
		c2.436-2.438,6.097-3.013,9.11-1.559l12.666-12.666c-1.454-3.012-0.879-6.673,1.559-9.11c3.119-3.119,8.194-3.119,11.313,0
		c1.003,1.003,1.707,2.228,2.068,3.588c1.36,0.362,2.585,1.065,3.588,2.068c3.119,3.119,3.119,8.194,0,11.313
		c-2.515,2.516-6.36,3.028-9.409,1.405L62.223,74.744c1.624,3.048,1.11,6.894-1.405,9.409C59.258,85.712,57.21,86.492,55.161,86.492
		z M49.503,67.835c-1.287,0-2.565,0.498-3.535,1.468c-0.944,0.944-1.464,2.2-1.464,3.536s0.52,2.591,1.464,3.536
		c0.789,0.789,1.803,1.282,2.933,1.425l1.153,0.146l0.146,1.153c0.143,1.129,0.636,2.144,1.425,2.933
		c0.944,0.944,2.2,1.464,3.536,1.464s2.591-0.52,3.536-1.464c1.771-1.771,1.954-4.6,0.425-6.578l-0.807-1.044l16.094-16.094
		l1.044,0.807c1.979,1.529,4.807,1.346,6.579-0.425c0.944-0.944,1.464-2.2,1.464-3.536s-0.52-2.591-1.464-3.536
		c-0.789-0.789-1.803-1.282-2.933-1.425l-1.153-0.146l-0.146-1.153c-0.143-1.129-0.636-2.144-1.425-2.933
		c-0.944-0.944-2.2-1.464-3.536-1.464s-2.591,0.52-3.536,1.464c-1.714,1.714-1.956,4.396-0.573,6.375l0.719,1.031L53.375,69.449
		l-1.031-0.719C51.484,68.129,50.491,67.835,49.503,67.835z"/>
	<path id="icon:1" style="fill:#434544;" d="M47.238,78.392l11.909-14.322c2.045-3.536,7.072-3.536,9.117,0l11.909,14.322
		c2.074,3.586-0.468,8.108-4.559,8.108H51.797C47.706,86.5,45.164,81.979,47.238,78.392z M41.709,55.418
		c-2.822,1.17-3.558,5.808-1.642,10.359s5.756,7.291,8.578,6.121c2.822-1.17,3.558-5.808,1.642-10.359
		C48.371,56.988,44.531,54.248,41.709,55.418z M61.079,48.708c1.392,4.743,0.14,9.265-2.795,10.101
		c-2.935,0.836-6.443-2.331-7.835-7.074s-0.14-9.265,2.795-10.101C56.18,40.798,59.688,43.965,61.079,48.708z M77.713,61.539
		c-1.915,4.551-1.18,9.188,1.642,10.359c2.822,1.17,6.663-1.57,8.578-6.121s1.18-9.188-1.642-10.359
		C83.469,54.248,79.629,56.988,77.713,61.539z M74.755,41.634c2.935,0.836,4.187,5.358,2.795,10.101s-4.899,7.91-7.835,7.074
		c-2.935-0.836-4.187-5.358-2.795-10.101S71.82,40.798,74.755,41.634z"/>
</g>
</svg>
