<?xml version="1.0" encoding="iso-8859-1"?>
<!-- Generator: Adobe Illustrator 19.0.0, SVG Export Plug-In . SVG Version: 6.00 Build 0)  -->
<svg version="1.1" id="Layer_1" xmlns="http://www.w3.org/2000/svg" xmlns:xlink="http://www.w3.org/1999/xlink" x="0px" y="0px"
	 viewBox="0 0 512 512" style="enable-background:new 0 0 512 512;" xml:space="preserve">
<path style="fill:#B4D8F1;" d="M378.88,174.08v40.96h68.267v95.573H378.88v40.96h88.747c11.31,0,20.48-9.17,20.48-20.48V194.56
	c0-11.31-9.17-20.48-20.48-20.48H378.88z"/>
<path style="fill:#F8E99B;" d="M64.853,460.8V78.507h327.68V460.8c0,22.622-18.339,40.96-40.96,40.96h-245.76
	C83.193,501.76,64.853,483.422,64.853,460.8z"/>
<path style="fill:#F6E27D;" d="M337.92,78.507V460.8c0,22.622-18.339,40.96-40.96,40.96h54.613c22.621,0,40.96-18.338,40.96-40.96
	V78.507H337.92z"/>
<path style="fill:#EDEDED;" d="M392.533,10.24H65.768c-22.353,0-41.279,17.525-41.86,39.87C23.308,73.23,41.869,92.16,64.853,92.16
	h150.902c7.145,0,12.938,5.793,12.938,12.938l0,0c0,14.841,11.538,27.511,26.371,28.007c15.507,0.517,28.242-11.9,28.242-27.292l0,0
	c0-7.541,6.113-13.653,13.653-13.653h94.66c22.353,0,41.279-17.525,41.86-39.87C434.079,29.17,415.517,10.24,392.533,10.24z"/>
<g>
	<path style="fill:#D8D8DA;" d="M242.347,105.813c0,6.846-2.53,13.095-6.691,17.887c4.777,5.515,11.63,9.144,19.41,9.403
		c15.507,0.519,28.242-11.899,28.242-27.29c0-7.541,6.113-13.653,13.653-13.653H256C248.459,92.16,242.347,98.273,242.347,105.813z"
		/>
	<path style="fill:#D8D8DA;" d="M392.533,10.24h-40.96c22.984,0,41.546,18.93,40.946,42.05c-0.58,22.345-19.507,39.87-41.86,39.87
		h40.96c22.353,0,41.279-17.525,41.86-39.87C434.079,29.17,415.517,10.24,392.533,10.24z"/>
</g>
<g>
	<path style="fill:#F6E27D;" d="M159.744,372.053c-19.699,0-35.727-16.388-35.727-36.532V190.132
		c0-20.144,16.026-36.532,35.727-36.532c19.699,0,35.727,16.388,35.727,36.532v145.389
		C195.471,355.665,179.444,372.053,159.744,372.053z"/>
	<path style="fill:#F6E27D;" d="M296.277,372.053c-18.947,0-34.361-16.388-34.361-36.532V190.132
		c0-20.144,15.415-36.532,34.361-36.532s34.361,16.388,34.361,36.532v145.389C330.639,355.665,315.224,372.053,296.277,372.053z"/>
</g>
<g>
	<path style="fill:#EFC27B;" d="M159.744,153.6c-7.186,0-13.879,2.189-19.487,5.936c9.768,6.528,16.239,17.8,16.239,30.596v145.389
		c0,12.796-6.472,24.068-16.239,30.596c5.609,3.748,12.3,5.936,19.487,5.936c19.699,0,35.727-16.388,35.727-36.532V190.132
		C195.471,169.988,179.444,153.6,159.744,153.6z"/>
	<path style="fill:#EFC27B;" d="M296.277,153.6c-6.911,0-13.348,2.189-18.742,5.936c9.393,6.528,15.618,17.8,15.618,30.596v145.389
		c0,12.796-6.225,24.068-15.618,30.596c5.394,3.748,11.831,5.936,18.742,5.936c18.947,0,34.361-16.388,34.361-36.532V190.132
		C330.639,169.988,315.224,153.6,296.277,153.6z"/>
</g>
<g>
	<path style="fill:#2E2D31;" d="M122.88,187.733V337.92c0,20.704,16.843,37.547,37.547,37.547s37.547-16.843,37.547-37.547V187.733
		c0-20.704-16.843-37.547-37.547-37.547C139.724,150.187,122.88,167.029,122.88,187.733z M177.493,187.733V337.92
		c0,9.411-7.655,17.067-17.067,17.067s-17.067-7.655-17.067-17.067V187.733c0-9.411,7.655-17.067,17.067-17.067
		S177.493,178.322,177.493,187.733z"/>
	<path style="fill:#2E2D31;" d="M259.413,187.733V337.92c0,20.704,16.843,37.547,37.547,37.547s37.547-16.843,37.547-37.547V187.733
		c0-20.704-16.843-37.547-37.547-37.547C276.258,150.187,259.413,167.029,259.413,187.733z M314.027,187.733V337.92
		c0,9.411-7.655,17.067-17.067,17.067c-9.411,0-17.067-7.655-17.067-17.067V187.733c0-9.411,7.655-17.067,17.067-17.067
		C306.371,170.667,314.027,178.322,314.027,187.733z"/>
	<path style="fill:#2E2D31;" d="M467.627,163.84h-64.853v-17.067c0-5.655-4.585-10.24-10.24-10.24c-5.655,0-10.24,4.585-10.24,10.24
		v276.48H119.467c-5.655,0-10.24,4.585-10.24,10.24c0,5.655,4.585,10.24,10.24,10.24h262.827V460.8c0,16.94-13.78,30.72-30.72,30.72
		h-245.76c-16.94,0-30.72-13.78-30.72-30.72V102.4h126.293h14.367c1.488,0,2.698,1.211,2.698,2.698
		c0,20.419,16.271,37.574,36.27,38.24c0.433,0.015,0.864,0.022,1.296,0.022c9.795-0.001,19.015-3.722,26.082-10.557
		c7.382-7.138,11.447-16.723,11.447-26.99c0-1.881,1.532-3.413,3.413-3.413h94.66c28.013,0,51.383-22.36,52.097-49.846
		c0.362-13.939-4.791-27.109-14.509-37.084C419.485,5.494,406.461,0,392.533,0H65.768C37.754,0,14.384,22.36,13.671,49.846
		c-0.362,13.939,4.791,27.109,14.509,37.082c7.291,7.482,16.439,12.444,26.433,14.456V460.8c0,28.232,22.968,51.2,51.2,51.2h245.76
		c28.232,0,51.2-22.968,51.2-51.2v-98.987h64.853c16.94,0,30.72-13.78,30.72-30.72V194.56
		C498.347,177.62,484.566,163.84,467.627,163.84z M34.144,50.377C34.572,33.892,48.759,20.48,65.768,20.48h326.765
		c8.357,0,16.171,3.297,22.005,9.284c5.831,5.983,8.922,13.89,8.705,22.259c-0.429,16.485-14.615,29.897-31.624,29.897h-94.66
		c-13.174,0-23.893,10.719-23.893,23.893c0,4.667-1.849,9.023-5.205,12.269c-3.353,3.244-7.771,4.936-12.456,4.788
		c-9.082-0.303-16.473-8.275-16.473-17.773c0-12.781-10.397-23.178-23.178-23.178h-14.367H64.855
		c-8.357,0-16.171-3.297-22.005-9.284C37.018,66.653,33.927,58.748,34.144,50.377z M402.773,225.28h34.133v75.093h-34.133V225.28z
		 M477.867,331.093c0,5.647-4.593,10.24-10.24,10.24h-64.853v-20.48h44.373c5.655,0,10.24-4.585,10.24-10.24V215.04
		c0-5.655-4.585-10.24-10.24-10.24h-44.373v-20.48h64.853c5.647,0,10.24,4.593,10.24,10.24V331.093z"/>
</g>
<g>
</g>
<g>
</g>
<g>
</g>
<g>
</g>
<g>
</g>
<g>
</g>
<g>
</g>
<g>
</g>
<g>
</g>
<g>
</g>
<g>
</g>
<g>
</g>
<g>
</g>
<g>
</g>
<g>
</g>
</svg>
