<?xml version="1.0" encoding="utf-8"?>
<!-- Generator: Adobe Illustrator 24.3.0, SVG Export Plug-In . SVG Version: 6.00 Build 0)  -->
<svg version="1.1" id="Layer_1" xmlns="http://www.w3.org/2000/svg" xmlns:xlink="http://www.w3.org/1999/xlink" x="0px" y="0px"
	 viewBox="0 0 80 80" enable-background="new 0 0 80 80" xml:space="preserve">
<g>
	<path fill="#7A8E9B" d="M58.795,32.643c-3.586-3.565-10.656-5.99-18.795-5.99s-15.209,2.426-18.795,5.99
		c-1.597-1.588-2.505-3.4-2.505-5.326C18.7,21.066,28.236,16,40,16s21.3,5.066,21.3,11.316C61.3,29.242,60.392,31.055,58.795,32.643
		z"/>
	<path fill="#E49A61" d="M40,38.633c8.139,0,15.209-2.428,18.795-5.99c1.597-1.588,2.505-3.4,2.505-5.326v10.65
		c0,2.02-0.996,3.916-2.741,5.557H40V38.633z"/>
	<path fill="#F1BB6B" d="M40,38.633c-8.139,0-15.209-2.428-18.795-5.99c-1.597-1.588-2.505-3.4-2.505-5.326v10.65
		c0,2.34,1.336,4.512,3.624,6.316l-1.119-0.99c3.586,3.564,10.656,5.99,18.795,5.99c7.043,0,17.423,3.705,21.3,6.504V45.131
		C57.422,42.334,47.041,38.633,40,38.633z"/>
	<path fill="#C6C6C6" d="M42.761,38.795c-1.054-2.354-2.824-3.871-4.869-3.871c-1.683,0-3.227,1.027-4.347,2.891l-0.153,0.256
		c0.538,0.092,1.084,0.176,1.64,0.246c0.808-1.207,1.812-1.873,2.861-1.873c1.185,0,2.278,0.855,3.076,2.219
		c0.801,1.369,1.305,3.248,1.305,5.287c0,2.078-0.525,3.988-1.354,5.361c-0.793,1.316-1.865,2.142-3.026,2.142
		c-1.226,0-2.416-0.943-3.253-2.539c-0.617-0.084-1.227-0.18-1.821-0.293l0.212,0.473c0.95,2.115,2.451,3.484,4.112,3.805v4.191h1.5
		V52.9c1.628-0.305,3.03-1.59,3.958-3.469c0.747-1.512,1.191-3.4,1.191-5.483C43.792,42.018,43.412,40.248,42.761,38.795z"/>
	<path fill="#FFFFFF" d="M57.93,48.176c0,0.559-0.454,1.012-1.013,1.012s-1.012-0.453-1.012-1.012c0-0.561,0.453-1.014,1.012-1.014
		S57.93,47.615,57.93,48.176z"/>
	<path fill="#E49A61" d="M53.279,46.246c0,0.559-0.453,1.012-1.012,1.012c-0.559,0-1.013-0.453-1.013-1.012
		c0-0.561,0.454-1.014,1.013-1.014C52.826,45.232,53.279,45.686,53.279,46.246z"/>
	<path fill="#E49A61" d="M48.501,45.043c0,0.559-0.454,1.012-1.013,1.012s-1.012-0.453-1.012-1.012c0-0.559,0.453-1.012,1.012-1.012
		S48.501,44.484,48.501,45.043z"/>
	<g>
		<rect x="39.25" y="18.1" fill="#525C6B" width="1.5" height="5.311"/>
		<rect x="31.149" y="19.428" fill="#525C6B" width="1.5" height="5.311"/>
		<rect x="47.351" y="19.428" fill="#525C6B" width="1.5" height="5.311"/>
		<rect x="24.062" y="22.912" fill="#525C6B" width="1.5" height="5.312"/>
		<rect x="55.451" y="22.912" fill="#525C6B" width="1.5" height="5.312"/>
	</g>
	<path fill="#FDDC85" d="M33.843,58.951c0-2.236,1.813-4.051,4.05-4.051c2.237,0,4.05,1.815,4.05,4.051
		c0,2.236-1.813,4.049-4.05,4.049C35.656,63,33.843,61.188,33.843,58.951z"/>
	<path fill="#FFBD66" d="M37.893,64c-2.784,0-5.05-2.264-5.05-5.049c0-2.785,2.266-5.051,5.05-5.051c2.785,0,5.05,2.266,5.05,5.051
		C42.942,61.736,40.677,64,37.893,64z M37.893,55.9c-1.682,0-3.05,1.369-3.05,3.051c0,1.682,1.368,3.049,3.05,3.049
		c1.682,0,3.05-1.367,3.05-3.049C40.942,57.27,39.575,55.9,37.893,55.9z"/>
</g>
</svg>
